<?xml version="1.0" encoding="UTF-8" standalone="no"?>
<!-- Created with Inkscape (http://www.inkscape.org/) -->

<svg
   xmlns:dc="http://purl.org/dc/elements/1.1/"
   xmlns:cc="http://creativecommons.org/ns#"
   xmlns:rdf="http://www.w3.org/1999/02/22-rdf-syntax-ns#"
   xmlns:svg="http://www.w3.org/2000/svg"
   xmlns="http://www.w3.org/2000/svg"
   xmlns:sodipodi="http://sodipodi.sourceforge.net/DTD/sodipodi-0.dtd"
   xmlns:inkscape="http://www.inkscape.org/namespaces/inkscape"
   width="776.64801"
   height="258.40195"
   id="svg3179"
   version="1.1"
   inkscape:version="0.48.5 r10040"
   sodipodi:docname="Neues Dokument 5">
  <defs
     id="defs3181" />
  <sodipodi:namedview
     id="base"
     pagecolor="#ffffff"
     bordercolor="#666666"
     borderopacity="1.0"
     inkscape:pageopacity="0.0"
     inkscape:pageshadow="2"
     inkscape:zoom="0.35"
     inkscape:cx="605.21943"
     inkscape:cy="252.55519"
     inkscape:document-units="px"
     inkscape:current-layer="layer1"
     showgrid="false"
     fit-margin-top="0"
     fit-margin-left="0"
     fit-margin-right="0"
     fit-margin-bottom="0"
     inkscape:window-width="451"
     inkscape:window-height="729"
     inkscape:window-x="456"
     inkscape:window-y="18"
     inkscape:window-maximized="0" />
  <metadata
     id="metadata3184">
    <rdf:RDF>
      <cc:Work
         rdf:about="">
        <dc:format>image/svg+xml</dc:format>
        <dc:type
           rdf:resource="http://purl.org/dc/dcmitype/StillImage" />
        <dc:title></dc:title>
      </cc:Work>
    </rdf:RDF>
  </metadata>
  <g
     inkscape:label="Ebene 1"
     inkscape:groupmode="layer"
     id="layer1"
     transform="translate(255.21943,-526.51541)">
    <g
       id="g8110"
       style="fill:#ff790f;fill-opacity:1"
       transform="translate(-393.07542,54.847434)">
      <polygon
         transform="translate(127.12699,459.93993)"
         id="polygon7892"
         points="10.729,40.698 10.729,69.367 10.729,98.034 10.729,126.734 39.394,126.734 68.12,126.734 96.785,126.734 96.785,98.034 68.12,98.034 39.394,98.034 39.394,69.367 39.394,40.698 68.12,40.698 96.785,40.698 96.785,11.993 68.12,11.993 39.394,11.993 10.729,11.993 "
         style="fill:#ff790f;fill-opacity:1" />
      <path
         id="path7894"
         d="m 281.24199,471.93293 h -28.665 v 28.705 28.669 28.667 28.7 h 28.665 v -28.7 h 28.727 v -28.628 h 28.665 v -28.708 l 0,0 v -28.705 h -28.665 -28.727 z m 28.726,28.705 v 28.632 h -28.727 v -28.632 h 28.727 l 0,0 z"
         inkscape:connector-curvature="0"
         style="fill:#ff790f;fill-opacity:1" />
      <rect
         id="rect7896"
         height="28.700001"
         width="28.665001"
         y="557.97394"
         x="309.96799"
         style="fill:#ff790f;fill-opacity:1" />
      <polygon
         transform="translate(127.12699,459.93993)"
         id="polygon7898"
         points="297.564,11.993 297.564,40.698 297.564,69.33 268.899,69.33 268.899,40.665 268.838,40.665 268.838,11.993 240.173,11.993 240.173,40.665 240.173,40.698 240.173,69.33 240.173,98.034 268.838,98.034 268.899,98.034 297.564,98.034 297.564,126.734 326.229,126.734 326.229,98.034 326.229,69.367 326.229,40.698 326.229,11.993 "
         style="fill:#ff790f;fill-opacity:1" />
      <path
         id="path7900"
         d="m 510.68199,471.93293 h -28.661 v 28.705 28.669 28.667 28.7 h 28.661 v -28.7 h 28.732 28.665 v -28.704 -28.632 -0.033 -28.672 h -28.665 -28.732 z m 28.732,57.337 h -28.732 v -28.632 h 28.732 v 28.632 z"
         inkscape:connector-curvature="0"
         style="fill:#ff790f;fill-opacity:1" />
      <polygon
         transform="translate(127.12699,459.93993)"
         id="polygon7902"
         points="498.338,69.367 498.338,98.034 498.338,126.734 527.007,126.734 527.007,98.034 527.007,69.367 527.007,40.698 555.68,40.698 555.68,11.993 527.007,11.993 498.294,11.993 469.621,11.993 469.621,40.698 498.294,40.698 498.338,40.698 "
         style="fill:#ff790f;fill-opacity:1" />
      <path
         id="path7904"
         d="m 512.94499,615.34293 h -28.665 v 28.652 28.665 28.714 28.694 h 28.665 v -28.694 h 28.728 v 28.694 h 28.666 v -28.694 -28.715 -28.664 -28.652 h -28.666 -28.728 l 0,0 z m 28.728,57.318 h -28.728 v -28.665 h 28.728 v 28.665 z"
         inkscape:connector-curvature="0"
         style="fill:#ff790f;fill-opacity:1" />
      <path
         id="path7906"
         d="m 398.22799,615.34293 h -28.667 v 28.652 28.665 28.714 28.694 h 28.667 v -28.694 h 28.718 28.669 v -28.715 -28.664 -0.038 -28.614 h -28.669 -28.718 z m 28.718,57.318 h -28.718 v -28.665 h 28.718 v 28.665 z"
         inkscape:connector-curvature="0"
         style="fill:#ff790f;fill-opacity:1" />
      <polygon
         transform="translate(127.12699,459.93993)"
         id="polygon7908"
         points="615.328,212.721 615.328,241.435 615.328,270.13 643.993,270.13 643.993,241.435 643.993,212.721 643.993,184.056 672.658,184.056 672.658,155.403 643.993,155.403 615.265,155.403 586.6,155.403 586.6,184.056 615.265,184.056 615.328,184.056 "
         style="fill:#ff790f;fill-opacity:1" />
      <path
         id="path7910"
         d="m 627.67199,615.34293 h -28.664 v 28.652 28.665 28.714 28.694 h 28.664 v -28.694 h 28.725 v -28.674 h 28.665 v -28.664 -0.04 -28.652 h -28.665 -28.725 z m 28.725,28.693 v 28.625 h -28.725 v -28.665 h 28.725 v 0.04 z"
         inkscape:connector-curvature="0"
         style="fill:#ff790f;fill-opacity:1" />
      <rect
         id="rect7912"
         height="28.694"
         width="28.665001"
         y="701.37494"
         x="656.39703"
         style="fill:#ff790f;fill-opacity:1" />
      <polygon
         transform="translate(127.12699,459.93993)"
         id="polygon7914"
         points="787.377,155.403 758.712,155.403 758.712,184.056 758.712,212.721 730.047,212.721 730.047,184.018 729.988,184.018 729.988,155.403 701.323,155.403 701.323,184.018 701.323,184.056 701.323,212.721 701.323,241.435 729.988,241.435 730.047,241.435 758.712,241.435 758.712,270.13 787.377,270.13 787.377,241.435 787.377,212.721 787.377,184.056 "
         style="fill:#ff790f;fill-opacity:1" />
    </g>
    <g
       id="g8076"
       style="fill:#ffdc03;fill-opacity:1"
       transform="translate(-393.07542,54.847474)">
      <rect
         id="rect7916"
         height="28.704"
         width="28.665001"
         y="557.70593"
         x="741.43799"
         style="fill:#ffdc03;fill-opacity:1" />
      <rect
         id="rect7918"
         height="28.700001"
         width="28.665001"
         y="557.97394"
         x="827.43304"
         style="fill:#ffdc03;fill-opacity:1" />
      <rect
         id="rect7920"
         height="28.700001"
         width="28.665001"
         y="557.97394"
         x="770.10303"
         style="fill:#ffdc03;fill-opacity:1" />
      <rect
         id="rect7922"
         height="28.700001"
         width="28.664"
         y="557.97394"
         x="712.77301"
         style="fill:#ffdc03;fill-opacity:1" />
      <rect
         id="rect7924"
         height="28.705"
         width="28.665001"
         y="529.18994"
         x="827.43304"
         style="fill:#ffdc03;fill-opacity:1" />
      <rect
         id="rect7926"
         height="28.705"
         width="28.665001"
         y="529.18994"
         x="798.76801"
         style="fill:#ffdc03;fill-opacity:1" />
      <rect
         id="rect7928"
         height="28.700001"
         width="28.665001"
         y="557.97394"
         x="884.711"
         style="fill:#ffdc03;fill-opacity:1" />
      <rect
         id="rect7930"
         height="28.705"
         width="28.665001"
         y="529.18994"
         x="884.711"
         style="fill:#ffdc03;fill-opacity:1" />
      <rect
         id="rect7932"
         height="28.705"
         width="28.665001"
         y="529.18994"
         x="856.04602"
         style="fill:#ffdc03;fill-opacity:1" />
      <rect
         id="rect7934"
         height="28.705"
         width="28.665001"
         y="529.18994"
         x="770.10303"
         style="fill:#ffdc03;fill-opacity:1" />
      <rect
         id="rect7936"
         height="28.705"
         width="28.664"
         y="529.18994"
         x="712.77301"
         style="fill:#ffdc03;fill-opacity:1" />
      <rect
         id="rect7938"
         height="28.702"
         width="28.665001"
         y="500.37094"
         x="770.10303"
         style="fill:#ffdc03;fill-opacity:1" />
      <rect
         id="rect7940"
         height="28.702"
         width="28.664"
         y="500.37094"
         x="712.77301"
         style="fill:#ffdc03;fill-opacity:1" />
      <rect
         id="rect7942"
         height="28.704"
         width="28.665001"
         y="471.66794"
         x="770.10303"
         style="fill:#ffdc03;fill-opacity:1" />
      <rect
         id="rect7944"
         height="28.704"
         width="28.665001"
         y="471.66794"
         x="741.43799"
         style="fill:#ffdc03;fill-opacity:1" />
      <rect
         id="rect7946"
         height="28.704"
         width="28.664"
         y="471.66794"
         x="712.77301"
         style="fill:#ffdc03;fill-opacity:1" />
      <rect
         id="rect7948"
         height="28.695999"
         width="28.665001"
         y="701.10492"
         x="283.556"
         style="fill:#ffdc03;fill-opacity:1" />
      <rect
         id="rect7950"
         height="28.694"
         width="28.669001"
         y="701.37494"
         x="197.55899"
         style="fill:#ffdc03;fill-opacity:1" />
      <rect
         id="rect7952"
         height="28.694"
         width="28.663"
         y="701.37494"
         x="254.89299"
         style="fill:#ffdc03;fill-opacity:1" />
      <rect
         id="rect7954"
         height="28.694"
         width="28.665001"
         y="701.37494"
         x="312.22098"
         style="fill:#ffdc03;fill-opacity:1" />
      <rect
         id="rect7956"
         height="28.701"
         width="28.669001"
         y="672.54993"
         x="197.55899"
         style="fill:#ffdc03;fill-opacity:1" />
      <rect
         id="rect7958"
         height="28.701"
         width="28.665001"
         y="672.54993"
         x="226.22798"
         style="fill:#ffdc03;fill-opacity:1" />
      <rect
         id="rect7960"
         height="28.694"
         width="28.664"
         y="701.37494"
         x="140.284"
         style="fill:#ffdc03;fill-opacity:1" />
      <rect
         id="rect7962"
         height="28.701"
         width="28.664"
         y="672.54993"
         x="140.284"
         style="fill:#ffdc03;fill-opacity:1" />
      <rect
         id="rect7964"
         height="28.701"
         width="28.673"
         y="672.54993"
         x="168.94699"
         style="fill:#ffdc03;fill-opacity:1" />
      <rect
         id="rect7966"
         height="28.701"
         width="28.663"
         y="672.54993"
         x="254.89299"
         style="fill:#ffdc03;fill-opacity:1" />
      <rect
         id="rect7968"
         height="28.701"
         width="28.665001"
         y="672.54993"
         x="312.22098"
         style="fill:#ffdc03;fill-opacity:1" />
      <rect
         id="rect7970"
         height="28.704"
         width="28.663"
         y="643.76794"
         x="254.89299"
         style="fill:#ffdc03;fill-opacity:1" />
      <rect
         id="rect7972"
         height="28.704"
         width="28.665001"
         y="643.76794"
         x="312.22098"
         style="fill:#ffdc03;fill-opacity:1" />
      <rect
         id="rect7974"
         height="28.693001"
         width="28.663"
         y="615.07495"
         x="254.89299"
         style="fill:#ffdc03;fill-opacity:1" />
      <rect
         id="rect7976"
         height="28.693001"
         width="28.665001"
         y="615.07495"
         x="283.556"
         style="fill:#ffdc03;fill-opacity:1" />
      <rect
         id="rect7978"
         height="28.693001"
         width="28.665001"
         y="615.07495"
         x="312.22098"
         style="fill:#ffdc03;fill-opacity:1" />
    </g>
  </g>
</svg>
