<?xml version="1.0" encoding="UTF-8" standalone="no"?>
<!-- Created with Inkscape (http://www.inkscape.org/) -->

<svg
   xmlns:dc="http://purl.org/dc/elements/1.1/"
   xmlns:cc="http://creativecommons.org/ns#"
   xmlns:rdf="http://www.w3.org/1999/02/22-rdf-syntax-ns#"
   xmlns:svg="http://www.w3.org/2000/svg"
   xmlns="http://www.w3.org/2000/svg"
   xmlns:sodipodi="http://sodipodi.sourceforge.net/DTD/sodipodi-0.dtd"
   xmlns:inkscape="http://www.inkscape.org/namespaces/inkscape"
   version="1.1"
   id="svg2"
   sodipodi:docname="www.noname-ev.de-5b.logo.svg"
   inkscape:version="0.91 r13725"
   inkscape:export-xdpi="90"
   inkscape:export-filename="/tmp/noname/draft.png"
   inkscape:export-ydpi="90"
   x="0px"
   y="0px"
   viewBox="475 -59 1792.5 711.2"
   style="enable-background:new 475 -59 1792.5 711.2;"
   xml:space="preserve"><metadata
     id="metadata55"><rdf:RDF><cc:Work
         rdf:about=""><dc:format>image/svg+xml</dc:format><dc:type
           rdf:resource="http://purl.org/dc/dcmitype/StillImage" /><dc:title></dc:title></cc:Work></rdf:RDF></metadata><defs
     id="defs53" /><sodipodi:namedview
     pagecolor="#ffffff"
     bordercolor="#666666"
     borderopacity="1"
     objecttolerance="10"
     gridtolerance="10"
     guidetolerance="10"
     inkscape:pageopacity="0"
     inkscape:pageshadow="2"
     inkscape:window-width="640"
     inkscape:window-height="480"
     id="namedview51"
     showgrid="false"
     inkscape:zoom="0.1790795"
     inkscape:cx="896.25"
     inkscape:cy="355.60001"
     inkscape:window-x="0"
     inkscape:window-y="0"
     inkscape:window-maximized="0"
     inkscape:current-layer="g10" /><style
     type="text/css"
     id="style3">
	.st0{fill:#231F20;}
</style><g
     id="g10"
     transform="matrix(1.25,0,0,-1.25,0,711.25)"
     inkscape:groupmode="layer"
     inkscape:label="ink_ext_XXXXXX"><g
       id="g12"
       transform="scale(0.1,0.1)"><g
         id="Text-Outlines"
         transform="scale(10,10)"><g
           id="www.noname-ev.de"><polygon
             class="st0"
             points="935.4,287.5 945.8,287.5 950.3,267.6 956,287.5 965.6,287.5 971.5,267.6 976.1,287.5 986.4,287.5       976.1,255.9 966.5,255.9 960.8,274.9 955.4,255.9 945.8,255.9     "
             id="polygon9" /><polygon
             class="st0"
             points="986,287.5 996.4,287.5 1000.9,267.6 1006.6,287.5 1016.3,287.5 1022.2,267.6 1026.7,287.5       1037,287.5 1026.7,255.9 1017.1,255.9 1011.5,274.9 1006,255.9 996.4,255.9     "
             id="polygon11" /><polygon
             class="st0"
             points="1036.6,287.5 1047,287.5 1051.5,267.6 1057.2,287.5 1066.9,287.5 1072.8,267.6 1077.3,287.5       1087.6,287.5 1077.3,255.9 1067.8,255.9 1062.1,274.9 1056.6,255.9 1047,255.9     "
             id="polygon13" /><polygon
             class="st0"
             points="1085.9,268.1 1097.4,268.1 1097.4,255.9 1085.9,255.9 1085.9,268.1     "
             id="polygon15" /><path
             class="st0"
             d="M1103.9,287.5h10v-5.1c1.5,2.1,3,3.6,4.5,4.5c1.5,0.9,3.4,1.4,5.6,1.4c3,0,5.3-1,7-3c1.7-2,2.5-5.1,2.5-9.2      v-20.1h-10.8v17.4c0,2-0.3,3.4-1,4.2c-0.6,0.8-1.6,1.2-2.7,1.2c-1.3,0-2.4-0.6-3.2-1.7c-0.8-1.1-1.2-3.1-1.2-6v-15.2h-10.7      V287.5z"
             id="path17" /><path
             class="st0"
             d="M1149.2,271.7c0-2.8,0.5-4.9,1.5-6.2c1-1.4,2.3-2,3.8-2c1.5,0,2.8,0.7,3.8,2c1,1.3,1.5,3.5,1.5,6.4      c0,2.7-0.5,4.8-1.5,6.1c-1,1.3-2.2,2-3.7,2c-1.6,0-2.9-0.7-3.9-2C1149.7,276.5,1149.2,274.4,1149.2,271.7z M1138.4,271.7      c0,4.8,1.4,8.8,4.3,11.9c2.9,3.1,6.8,4.7,11.7,4.7c5.6,0,9.8-1.8,12.7-5.5c2.3-3,3.5-6.6,3.5-10.9c0-4.9-1.4-8.9-4.3-12      c-2.9-3.1-6.8-4.7-11.9-4.7c-4.5,0-8.1,1.3-10.9,3.9C1140.1,262.3,1138.4,266.5,1138.4,271.7z"
             id="path19" /><path
             class="st0"
             d="M1175.5,287.5h10v-5.1c1.5,2.1,3,3.6,4.5,4.5c1.5,0.9,3.4,1.4,5.6,1.4c3,0,5.3-1,7-3c1.7-2,2.5-5.1,2.5-9.2      v-20.1h-10.8v17.4c0,2-0.3,3.4-1,4.2c-0.6,0.8-1.6,1.2-2.7,1.2c-1.3,0-2.4-0.6-3.2-1.7c-0.8-1.1-1.2-3.1-1.2-6v-15.2h-10.7      V287.5z"
             id="path21" /><path
             class="st0"
             d="M1230.4,270.9c-1.5-0.6-3-1.1-4.6-1.6c-2.2-0.7-3.6-1.3-4.1-1.9c-0.6-0.7-0.9-1.4-0.9-2.2      c0-1,0.3-1.7,0.9-2.3c0.6-0.6,1.5-0.9,2.6-0.9c1.2,0,2.3,0.3,3.3,1c1,0.7,1.8,1.5,2.2,2.4c0.4,0.9,0.6,2.2,0.6,3.7V270.9z       M1221.1,277.3l-10.3,1.2c0.4,2,0.9,3.6,1.7,4.8c0.7,1.2,1.8,2.2,3.2,3c1,0.6,2.3,1.1,4.1,1.4c1.7,0.3,3.6,0.5,5.6,0.5      c3.2,0,5.8-0.2,7.7-0.6c2-0.4,3.6-1.3,4.9-2.5c0.9-0.9,1.6-2.2,2.2-3.8c0.5-1.6,0.8-3.2,0.8-4.7v-14c0-1.5,0.1-2.7,0.2-3.5      c0.2-0.8,0.5-1.9,1.1-3.2h-10.1c-0.4,0.8-0.7,1.4-0.8,1.9c-0.1,0.4-0.2,1.1-0.4,2c-1.4-1.5-2.8-2.6-4.2-3.3      c-1.9-0.9-4.1-1.3-6.6-1.3c-3.3,0-5.9,0.9-7.6,2.6c-1.7,1.8-2.6,3.9-2.6,6.5c0,2.4,0.6,4.4,1.9,5.9c1.2,1.6,3.6,2.7,6.9,3.5      c4,0.9,6.6,1.6,7.8,1.9c1.2,0.4,2.5,0.8,3.8,1.5c0,1.5-0.3,2.5-0.8,3.1c-0.5,0.6-1.5,0.9-2.9,0.9c-1.8,0-3.1-0.3-4-1      C1222.1,279.6,1221.6,278.7,1221.1,277.3z"
             id="path23" /><path
             class="st0"
             d="M1247.3,287.5h10v-4.6c1.4,1.9,2.9,3.3,4.4,4.1c1.5,0.8,3.2,1.2,5.3,1.2c2.2,0,4-0.4,5.3-1.3      c1.3-0.9,2.4-2.2,3.2-4c1.7,2.1,3.2,3.5,4.6,4.2c1.4,0.8,3.1,1.1,5.1,1.1c3,0,5.4-1,7-3c1.7-2,2.5-5.2,2.5-9.5v-19.9H1284v18      c0,1.4-0.2,2.5-0.7,3.2c-0.7,1.1-1.6,1.6-2.7,1.6c-1.3,0-2.3-0.5-3.1-1.5c-0.8-1-1.2-2.7-1.2-5v-16.3h-10.8v17.4      c0,1.4-0.1,2.3-0.2,2.8c-0.2,0.8-0.6,1.4-1.2,1.9c-0.6,0.5-1.2,0.7-2,0.7c-1.2,0-2.2-0.5-3-1.6c-0.8-1.1-1.2-2.8-1.2-5.2v-16.1      h-10.8V287.5z"
             id="path25" /><path
             class="st0"
             d="M1321,274.5c-0.2,2.3-0.8,4-1.7,5c-0.9,1-2.1,1.5-3.6,1.5c-1.7,0-3.1-0.8-4.1-2.3c-0.6-0.9-1.1-2.4-1.2-4.3      H1321z M1331.9,268.7h-21.5c0.2-1.9,0.7-3.4,1.4-4.4c1-1.4,2.4-2,4-2c1.1,0,2.1,0.3,3,0.9c0.6,0.4,1.2,1,1.9,2l10.6-1.1      c-1.6-3.2-3.6-5.5-5.9-6.8c-2.3-1.4-5.6-2.1-9.8-2.1c-3.7,0-6.6,0.6-8.8,1.8c-2.1,1.2-3.9,3.1-5.3,5.6c-1.4,2.6-2.1,5.6-2.1,9.1      c0,4.9,1.4,8.9,4.2,12c2.8,3.1,6.7,4.6,11.6,4.6c4,0,7.2-0.7,9.5-2.1c2.3-1.4,4.1-3.4,5.3-6c1.2-2.6,1.8-6,1.8-10.2V268.7z"
             id="path27" /><polygon
             class="st0"
             points="1334.6,276.5 1350.2,276.5 1350.2,267.2 1334.6,267.2 1334.6,276.5     "
             id="polygon29" /><path
             class="st0"
             d="M1374.7,274.5c-0.2,2.3-0.8,4-1.7,5c-0.9,1-2.1,1.5-3.6,1.5c-1.7,0-3.1-0.8-4.1-2.3      c-0.6-0.9-1.1-2.4-1.2-4.3H1374.7z M1385.6,268.7h-21.5c0.2-1.9,0.7-3.4,1.4-4.4c1-1.4,2.4-2,4-2c1.1,0,2.1,0.3,3,0.9      c0.6,0.4,1.2,1,1.9,2l10.6-1.1c-1.6-3.2-3.6-5.5-5.9-6.8c-2.3-1.4-5.6-2.1-9.8-2.1c-3.7,0-6.6,0.6-8.8,1.8      c-2.1,1.2-3.9,3.1-5.3,5.6c-1.4,2.6-2.1,5.6-2.1,9.1c0,4.9,1.4,8.9,4.2,12c2.8,3.1,6.7,4.6,11.6,4.6c4,0,7.2-0.7,9.5-2.1      c2.3-1.4,4.1-3.4,5.3-6c1.2-2.6,1.8-6,1.8-10.2V268.7z"
             id="path31" /><polygon
             class="st0"
             points="1385.9,287.5 1397,287.5 1402.5,267.5 1408.1,287.5 1418.9,287.5 1407,255.9 1397.5,255.9     "
             id="polygon33" /><polygon
             class="st0"
             points="1416.9,268.1 1428.4,268.1 1428.4,255.9 1416.9,255.9 1416.9,268.1     "
             id="polygon35" /><path
             class="st0"
             d="M1453.6,271.8c0,2.5-0.5,4.3-1.4,5.5c-0.9,1.2-2.1,1.8-3.5,1.8c-1.2,0-2.3-0.6-3.1-1.8      c-0.8-1.2-1.3-3.1-1.3-5.9c0-2.6,0.4-4.5,1.3-5.7c0.9-1.2,2-1.8,3.2-1.8c1.4,0,2.5,0.6,3.4,1.8      C1453.1,267.1,1453.6,269.1,1453.6,271.8z M1464.4,299.6v-43.7h-10v4.7c-1.4-2-2.7-3.3-3.8-4c-1.6-0.9-3.3-1.4-5.2-1.4      c-3.8,0-6.7,1.6-8.7,4.9c-2,3.3-3,7.3-3,12c0,5.2,1.1,9.2,3.3,12c2.2,2.8,5,4.2,8.5,4.2c1.7,0,3.2-0.3,4.5-1      c1.4-0.6,2.6-1.6,3.6-2.9v15.1H1464.4z"
             id="path37" /><path
             class="st0"
             d="M1490.9,274.5c-0.2,2.3-0.8,4-1.7,5c-0.9,1-2.1,1.5-3.6,1.5c-1.7,0-3.1-0.8-4.1-2.3      c-0.6-0.9-1.1-2.4-1.2-4.3H1490.9z M1501.8,268.7h-21.5c0.2-1.9,0.7-3.4,1.4-4.4c1-1.4,2.4-2,4-2c1.1,0,2.1,0.3,3,0.9      c0.6,0.4,1.2,1,1.9,2l10.6-1.1c-1.6-3.2-3.6-5.5-5.9-6.8c-2.3-1.4-5.6-2.1-9.8-2.1c-3.7,0-6.6,0.6-8.8,1.8      c-2.1,1.2-3.9,3.1-5.3,5.6c-1.4,2.6-2.1,5.6-2.1,9.1c0,4.9,1.4,8.9,4.2,12c2.8,3.1,6.7,4.6,11.6,4.6c4,0,7.2-0.7,9.5-2.1      c2.3-1.4,4.1-3.4,5.3-6c1.2-2.6,1.8-6,1.8-10.2V268.7z"
             id="path39" /></g><path
           id="NAME"
           inkscape:connector-curvature="0"
           class="st0"
           d="M733.5,508.4h50.8l66.3-111.7v111.7h51.3V306.4h-51.3l-66,110.9     V306.4h-51.2L733.5,508.4L733.5,508.4z M1043.9,339.7h-62l-8.5-33.3h-55.6L984,508.4h59.3l66.2-201.9h-56.9L1043.9,339.7     L1043.9,339.7z M1032.5,383.4L1013,456l-19.3-72.6H1032.5z M1126.3,508.4h71.6l27.6-122.9l27.5,122.9h71.3V306.4h-44.4v154     l-34.5-154h-40.2l-34.4,154v-154h-44.6L1126.3,508.4L1126.3,508.4z M1358.9,508.4h145.8v-43.1h-91.2v-32.1h0.3v-41.2h-0.3v-39.8     h93.9v-45.7h-148.4L1358.9,508.4" /><g
           id="No_x3F_"><polygon
             class="st0"
             points="446.3,508.1 492.1,508.1 552,397.6 552,508.1 598.3,508.1 598.3,308.4 552,308.4 492.5,418       492.5,308.4 446.3,308.4     "
             id="polygon43" /><path
             class="st0"
             d="M647.1,287.6h31v-32.4h-31V287.6z M677,296.7h-29v3.4c0,5.8,0.6,10.6,1.7,14.2c1.1,3.6,2.8,7,5,10      c2.2,3,7.2,8.3,14.9,15.9c4.1,4,6.2,7.6,6.2,10.9c0,3.3-0.8,5.9-2.5,7.7c-1.6,1.8-4.1,2.8-7.5,2.8c-3.6,0-6.6-1.4-9-4.2      c-2.4-2.8-3.9-7.8-4.5-14.8l-29.5,4.3c1,12.9,5,23.3,11.8,31.1c6.9,7.9,17.4,11.8,31.7,11.8c11.1,0,20-2.7,26.8-8.2      c9.2-7.4,13.9-17.3,13.9-29.6c0-5.1-1.2-10.1-3.6-14.8c-2.4-4.8-7.3-10.6-14.6-17.4c-5.1-4.8-8.4-8.7-9.7-11.6      C677.7,305.2,677,301.4,677,296.7z"
             id="path45" /><path
             class="st0"
             d="M644.4,451.7c0-9.8,1.7-16.9,5.2-21.2c3.4-4.3,8.1-6.4,14-6.4c6.1,0,10.8,2.1,14.1,6.3      c3.3,4.2,5,11.8,5,22.7c0,9.2-1.7,15.8-5.2,20.1c-3.5,4.2-8.2,6.3-14.2,6.3c-5.7,0-10.3-2.1-13.8-6.4      C646.1,468.7,644.4,461.6,644.4,451.7z M616.1,451.8c0,15.9,4.2,28.3,12.5,37.1c8.3,8.9,19.9,13.3,34.8,13.3      c15.2,0,27-4.4,35.2-13c8.2-8.7,12.4-20.9,12.4-36.6c0-11.4-1.8-20.7-5.4-28c-3.6-7.3-8.8-12.9-15.6-17      c-6.8-4.1-15.3-6.1-25.5-6.1c-10.3,0-18.9,1.7-25.7,5.2c-6.8,3.5-12.3,9-16.5,16.6C618.2,431,616.1,440.5,616.1,451.8z"
             id="path47" /></g></g><path
         id="Rahmen"
         sodipodi:nodetypes="ccccccccccccccccccccccccccccccc"
         inkscape:connector-curvature="0"
         class="st0"
         d="    M3807.6,5590.6L3807.6,5590.6L3807.6,5590.6l11787.7,0v0h4.9v-939.6h-319v620.6H4126.6v-2396H6357v-319H3807.7v2.4h0    L3807.6,5590.6z M15281.2,2875.6h-189.9v-319h504v4.9h4.9v1016.1h-319V2875.6z M9283.2,2875.6H6898.7v-319h2384.5V2875.6z" /><path
         id="Knoten"
         inkscape:connector-curvature="0"
         class="st0"
         d="M16695.6,1372.4c-4.7-29.2-6.6-58.4-11.3-87.5    c-107.3-15.1-223-16-333.1-2.8c16,30.1,43.3,60.2,59.2,90.3C16506.4,1358.3,16591.1,1358.3,16695.6,1372.4L16695.6,1372.4z     M16822.7,1310.3c106.3,334.1,238.1,1046.5,93.1,1019.2c-48,54.6-386.8-339.7-392.4-700.2l-65,5.6    c-112.9,425.4,366.3,674.9,411.5,1026.9c23-5.8,63.9-3.5,108,21.4c144-440.4,132.7-782.9-31-1350.4    c-33.9-416-8.5-563.7,166.6-714.3c24-73.9,22.1-124.7-5.7-146.8C17074.9,480.3,16714.4,576.3,16822.7,1310.3L16822.7,1310.3z     M17243.3,2902.3c-34.9-55.3-56.6-75.1-104.4-104.5c433.8-641.8,325.6-1080-25.4-1346.4c-19.5-36.6-19.5-66.7,0-90.3    c254.1,127,485.6,403.7,378.3,999.4c297.4-115.8,445.1-70.6,643.7-33.9c-18.8,32.9-23.1,75.6-56.5,98.8    C17584.9,2304.1,17415.5,2538.1,17243.3,2902.3L17243.3,2902.3z M16510,2833.4c-79,10.8-77.3-67.8,28.3-77.1    c283.3,15.1,859.9,267.6,866.4,709.8c10,102-18.8,168.4-47.6,102.2C17337.4,3249.7,16926.3,2880.1,16510,2833.4L16510,2833.4z     M17262.6,3731.1c-112.1-433.7-668.8-615.9-1016.3-636.7c-74.5,0.6-70.7-38-16.8-70.9c643.1-48.9,1060.2,381,1093.1,616.6    C17330.7,3697.8,17321.6,3723.5,17262.6,3731.1L17262.6,3731.1z M16135.4,3292.4c610.9-10.1,1081.2,155.9,1040.1,561.3    c-21.8,57.5-24.6,6.8,42.1,171.9c19.5,82.7,3.8,162.2-56.2,85.5c-52.6-12.4-80.2-221.9-155.6-36.3    c-43.1,130.9-85.3,199.7-186.8,375.1c-36.5,27.3-109.7,22.4-112.6-4.9c121.8-164.2,300.9-518,193.9-586.9c0,0,14.5,0,14.4,0    c-0.4-0.3-0.9-0.7-1.4-1c-0.1-0.1-0.2-0.1-0.3-0.2v0c-14-9.9-25.4-28.4-92.2-27.8c-78.5,233.7-129.3,481.8-365.3,728.3    c-53.7,63-136.8,58.3-93-31.4c181.7-236.3,274.6-395.1,347.3-656.5c9-27.4,6.9-43-0.6-75.1c-1.1,4.3-4.9-3.3-29.1-2.8    c-138.1,49.3,151-8.3-545.2,792.9c-64.3,57.9-138.1,30.4-105.9-36.3c229.3-302.6,458.2-576.6,463.3-691.4    c-20.7-9.3-40.3,0.2-61,7.7c-99.1,160.6-227.2,523.3-765.4,618.2c-297,52.6-1058.2,55.4-1558.6,53.3l-17.7-137.9    c1027.5,38.1,1907.3,20.3,1991.3-280.4c-318.3,128.8-316.9,158.5-1989.1,134.4l8.4-110.9c1569.3,6.8,1920.7,27.6,1943.6-193.7    c-165.2,90.2-902.6,84.7-1936.2,86.4l-13-119.4c1555.1,4.2,1898.4,48.9,1960.6-161.9c-262.6,61.6-1282.1,32.6-1950.5,33.9v-109.2    c1297,2.3,1816.9,22.6,1811.7-54.8l6.1-0.4c0.8-27.1,1.5-54.3,2.3-81.4c630-134.6,1051.9,169.4,1102.5,236.2l9.3,1.6    c62.9-285.5-639.8-430.3-931.1-424.2C16023.1,3369.1,16017.4,3296.6,16135.4,3292.4" /></g></g></svg>