<?xml version="1.0" encoding="UTF-8" standalone="no"?>
<!-- Created with Inkscape (http://www.inkscape.org/) -->

<svg
   xmlns:dc="http://purl.org/dc/elements/1.1/"
   xmlns:cc="http://creativecommons.org/ns#"
   xmlns:rdf="http://www.w3.org/1999/02/22-rdf-syntax-ns#"
   xmlns:svg="http://www.w3.org/2000/svg"
   xmlns="http://www.w3.org/2000/svg"
   version="1.1"
   width="1792.5"
   height="711.25"
   id="svg2"
   xml:space="preserve"><metadata
     id="metadata8"><rdf:RDF><cc:Work
         rdf:about=""><dc:format>image/svg+xml</dc:format><dc:type
           rdf:resource="http://purl.org/dc/dcmitype/StillImage" /><dc:title></dc:title></cc:Work></rdf:RDF></metadata><defs
     id="defs6" /><g
     transform="scale(0.89225893,1.1207509)"
     id="text16"
     style="font-size:13.38388443px"><path
       d="m 92.907814,120.26419 64.360916,0 83.98871,123.39646 0,-123.39646 64.96953,0 0,223.05698 -64.96953,0 -83.53225,-122.48354 0,122.48354 -64.817376,0 0,-223.05698"
       id="path3030"
       style="font-size:311.61029053px;font-variant:normal;font-weight:normal;writing-mode:lr-tb;fill:#231f20;fill-opacity:1;fill-rule:nonzero;stroke:none;font-family:Arial Black;-inkscape-font-specification:ArialBlack" /></g><g
     transform="scale(0.91819497,1.0890933)"
     id="text20"
     style="font-size:13.77292442px"><path
       d="m 404.43276,366.56551 -39.46026,0 0,-3.94603 c -4e-5,-6.71511 0.76147,-12.14954 2.28454,-16.30331 1.52298,-4.22287 3.7729,-8.06505 6.74978,-11.52655 3.046,-3.46135 9.83039,-9.55345 20.35319,-18.27633 5.60743,-4.56899 8.41118,-8.75731 8.41126,-12.56498 -8e-5,-3.80746 -1.14235,-6.74967 -3.42681,-8.82664 -2.21539,-2.14596 -5.60758,-3.219 -10.17659,-3.21913 -4.91529,1.3e-4 -8.99977,1.627 -12.25345,4.88062 -3.18457,3.25385 -5.2268,8.93058 -6.12673,17.03021 l -40.291,-4.98445 c 1.38456,-14.81479 6.74977,-26.72208 16.09563,-35.72192 9.41505,-9.06879 23.81457,-13.60325 43.1986,-13.60341 15.09174,1.6e-4 27.27595,3.15005 36.55266,9.4497 12.59948,8.51524 18.89927,19.86871 18.89939,34.06043 -1.2e-4,5.88453 -1.62699,11.56127 -4.88061,17.03022 -3.25385,5.46914 -9.89979,12.14969 -19.93781,20.04166 -6.99218,5.53835 -11.4228,10.00358 -13.29188,13.39572 -1.80003,3.32302 -2.7,7.68442 -2.69991,13.08419 m -40.81022,10.48812 42.26402,0 0,37.27956 -42.26402,0 0,-37.27956"
       id="path3061"
       style="font-size:212.67002869px;font-variant:normal;font-weight:normal;writing-mode:lr-tb;fill:#231f20;fill-opacity:1;fill-rule:nonzero;stroke:none;font-family:Arial Black;-inkscape-font-specification:ArialBlack" /></g><g
     transform="scale(0.96969529,1.0312518)"
     id="text24"
     style="font-size:14.54542923px"><path
       d="m 304.31551,199.0337 c -1e-5,-19.32248 5.38232,-34.36608 16.14699,-45.13083 10.76462,-10.76455 25.7544,-16.14687 44.96936,-16.14699 19.69924,1.2e-4 34.8774,5.30171 45.53451,15.90478 10.65689,10.54946 15.98539,25.35086 15.98552,44.40422 -1.3e-4,13.83264 -2.34144,25.18934 -7.02394,34.07015 -4.62892,8.82704 -11.35683,15.71641 -20.18373,20.66815 -8.7733,4.89792 -19.72633,7.34687 -32.85913,7.34688 -13.34823,-10e-6 -24.40891,-2.12602 -33.18206,-6.37806 -8.7194,-4.25204 -15.79716,-10.97994 -21.23329,-20.18374 -5.43616,-9.20375 -8.15424,-20.72192 -8.15423,-34.55456 m 36.57293,0.16147 c -4e-5,11.94882 2.20671,20.53363 6.62027,25.75445 4.46727,5.22089 10.52239,7.83132 18.16536,7.83129 7.85812,3e-5 13.94015,-2.55658 18.2461,-7.66982 4.30577,-5.11317 6.4587,-14.29004 6.45879,-27.53062 -9e-5,-11.14135 -2.26067,-19.26866 -6.78173,-24.38195 -4.46742,-5.16695 -10.54945,-7.75046 -18.2461,-7.75055 -7.37385,9e-5 -13.29441,2.61052 -17.76169,7.83129 -4.46738,5.22093 -6.70104,13.85957 -6.701,25.91591"
       id="path3033"
       style="font-size:165.34516907px;font-variant:normal;font-weight:normal;writing-mode:lr-tb;fill:#231f20;fill-opacity:1;fill-rule:nonzero;stroke:none;font-family:Arial Black;-inkscape-font-specification:ArialBlack" /></g><g
     transform="scale(0.98277717,1.0175247)"
     id="text28"
     style="font-size:14.74165726px"><path
       d="m 827.68212,404.00584 14.30736,0 6.20953,24.29346 7.84363,-24.29346 13.3269,0 8.13414,24.29346 6.20953,-24.29346 14.19842,0 -14.19842,38.5645 -13.14533,0 -7.80732,-23.20406 -7.55312,23.20406 -13.21796,0 -14.30736,-38.5645"
       id="path3036"
       style="font-size:74.36920166px;font-variant:normal;font-weight:normal;writing-mode:lr-tb;fill:#231f20;fill-opacity:1;fill-rule:nonzero;stroke:none;font-family:Arial Black;-inkscape-font-specification:ArialBlack" /><path
       d="m 897.88665,404.00584 14.30736,0 6.20953,24.29346 7.84363,-24.29346 13.3269,0 8.13413,24.29346 6.20954,-24.29346 14.19842,0 -14.19842,38.5645 -13.14534,0 -7.80731,-23.20406 -7.55312,23.20406 -13.21796,0 -14.30736,-38.5645"
       id="path3038"
       style="font-size:74.36920166px;font-variant:normal;font-weight:normal;writing-mode:lr-tb;fill:#231f20;fill-opacity:1;fill-rule:nonzero;stroke:none;font-family:Arial Black;-inkscape-font-specification:ArialBlack" /><path
       d="m 968.09118,404.00584 14.30735,0 6.20954,24.29346 7.84363,-24.29346 13.3269,0 8.1341,24.29346 6.2096,-24.29346 14.1984,0 -14.1984,38.5645 -13.1454,0 -7.8073,-23.20406 -7.5531,23.20406 -13.21797,0 -14.30735,-38.5645"
       id="path3040"
       style="font-size:74.36920166px;font-variant:normal;font-weight:normal;writing-mode:lr-tb;fill:#231f20;fill-opacity:1;fill-rule:nonzero;stroke:none;font-family:Arial Black;-inkscape-font-specification:ArialBlack" /><path
       d="m 1036.3313,427.7546 15.7962,0 0,14.81574 -15.7962,0 0,-14.81574"
       id="path3042"
       style="font-size:74.36920166px;font-variant:normal;font-weight:normal;writing-mode:lr-tb;fill:#231f20;fill-opacity:1;fill-rule:nonzero;stroke:none;font-family:Arial Black;-inkscape-font-specification:ArialBlack" /><path
       d="m 1089.8199,427.50041 14.0531,1.59778 c -0.7747,2.92926 -2.0457,5.47118 -3.8129,7.62575 -1.7672,2.13037 -4.0307,3.78866 -6.7905,4.97489 -2.7356,1.18623 -6.2217,1.77934 -10.4582,1.77934 -4.0913,0 -7.5047,-0.37524 -10.2403,-1.12571 -2.7113,-0.77467 -5.0475,-2.00932 -7.0084,-3.70393 -1.9609,-1.71881 -3.4981,-3.72814 -4.6117,-6.02797 -1.1137,-2.29982 -1.6705,-5.35012 -1.6704,-9.1509 -10e-5,-3.97021 0.6778,-7.2747 2.0335,-9.91347 0.9925,-1.93667 2.3482,-3.66759 4.0671,-5.19277 1.7188,-1.54933 3.486,-2.69924 5.3017,-3.44975 2.8808,-1.18619 6.5726,-1.7793 11.0755,-1.77934 6.2942,4e-5 11.0875,1.12574 14.3799,3.37712 3.3166,2.25144 5.6406,5.54383 6.9721,9.87716 l -13.9079,1.85196 c -0.4358,-1.64616 -1.2346,-2.88081 -2.3966,-3.70393 -1.1379,-0.84728 -2.6751,-1.27093 -4.6118,-1.27096 -2.4451,3e-5 -4.4302,0.88365 -5.9553,2.65086 -1.501,1.74305 -2.2515,4.3939 -2.2514,7.95256 -10e-5,3.17136 0.7504,5.58013 2.2514,7.22631 1.5009,1.6462 3.4134,2.4693 5.7374,2.46929 1.9367,10e-6 3.5587,-0.49627 4.866,-1.48884 1.3314,-0.99255 2.324,-2.51769 2.9777,-4.57545"
       id="path3044"
       style="font-size:74.36920166px;font-variant:normal;font-weight:normal;writing-mode:lr-tb;fill:#231f20;fill-opacity:1;fill-rule:nonzero;stroke:none;font-family:Arial Black;-inkscape-font-specification:ArialBlack" /><path
       d="m 1139.4241,427.50041 14.0532,1.59778 c -0.7748,2.92926 -2.0457,5.47118 -3.8129,7.62575 -1.7673,2.13037 -4.0308,3.78866 -6.7906,4.97489 -2.7356,1.18623 -6.2216,1.77934 -10.4581,1.77934 -4.0913,0 -7.5047,-0.37524 -10.2403,-1.12571 -2.7114,-0.77467 -5.0475,-2.00932 -7.0084,-3.70393 -1.9609,-1.71881 -3.4982,-3.72814 -4.6118,-6.02797 -1.1136,-2.29982 -1.6704,-5.35012 -1.6704,-9.1509 0,-3.97021 0.6778,-7.2747 2.0335,-9.91347 0.9926,-1.93667 2.3483,-3.66759 4.0671,-5.19277 1.7188,-1.54933 3.486,-2.69924 5.3017,-3.44975 2.8808,-1.18619 6.5727,-1.7793 11.0755,-1.77934 6.2942,4e-5 11.0876,1.12574 14.38,3.37712 3.3165,2.25144 5.6406,5.54383 6.9721,9.87716 l -13.9079,1.85196 c -0.4358,-1.64616 -1.2347,-2.88081 -2.3967,-3.70393 -1.1378,-0.84728 -2.6751,-1.27093 -4.6117,-1.27096 -2.4451,3e-5 -4.4303,0.88365 -5.9554,2.65086 -1.5009,1.74305 -2.2514,4.3939 -2.2514,7.95256 0,3.17136 0.7505,5.58013 2.2514,7.22631 1.5009,1.6462 3.4134,2.4693 5.7375,2.46929 1.9367,10e-6 3.5586,-0.49627 4.8659,-1.48884 1.3315,-0.99255 2.324,-2.51769 2.9777,-4.57545"
       id="path3046"
       style="font-size:74.36920166px;font-variant:normal;font-weight:normal;writing-mode:lr-tb;fill:#231f20;fill-opacity:1;fill-rule:nonzero;stroke:none;font-family:Arial Black;-inkscape-font-specification:ArialBlack" /><path
       d="m 1189.0284,427.50041 14.0531,1.59778 c -0.7747,2.92926 -2.0457,5.47118 -3.8129,7.62575 -1.7672,2.13037 -4.0307,3.78866 -6.7905,4.97489 -2.7356,1.18623 -6.2217,1.77934 -10.4582,1.77934 -4.0913,0 -7.5047,-0.37524 -10.2403,-1.12571 -2.7114,-0.77467 -5.0475,-2.00932 -7.0084,-3.70393 -1.9609,-1.71881 -3.4982,-3.72814 -4.6117,-6.02797 -1.1137,-2.29982 -1.6705,-5.35012 -1.6705,-9.1509 0,-3.97021 0.6779,-7.2747 2.0336,-9.91347 0.9925,-1.93667 2.3482,-3.66759 4.067,-5.19277 1.7189,-1.54933 3.4861,-2.69924 5.3018,-3.44975 2.8808,-1.18619 6.5726,-1.7793 11.0754,-1.77934 6.2943,4e-5 11.0876,1.12574 14.38,3.37712 3.3166,2.25144 5.6406,5.54383 6.9721,9.87716 l -13.9079,1.85196 c -0.4358,-1.64616 -1.2346,-2.88081 -2.3966,-3.70393 -1.1379,-0.84728 -2.6751,-1.27093 -4.6118,-1.27096 -2.4451,3e-5 -4.4302,0.88365 -5.9553,2.65086 -1.501,1.74305 -2.2515,4.3939 -2.2515,7.95256 0,3.17136 0.7505,5.58013 2.2515,7.22631 1.5009,1.6462 3.4134,2.4693 5.7374,2.46929 1.9367,10e-6 3.5587,-0.49627 4.866,-1.48884 1.3314,-0.99255 2.324,-2.51769 2.9777,-4.57545"
       id="path3048"
       style="font-size:74.36920166px;font-variant:normal;font-weight:normal;writing-mode:lr-tb;fill:#231f20;fill-opacity:1;fill-rule:nonzero;stroke:none;font-family:Arial Black;-inkscape-font-specification:ArialBlack" /><path
       d="m 1208.5965,389.33536 14.7794,0 0,19.60906 c 2.0093,-2.08191 4.0066,-3.57074 5.9917,-4.4665 1.9851,-0.89569 4.3333,-1.34355 7.0447,-1.34359 4.0187,4e-5 7.1779,1.22258 9.4778,3.66762 2.3239,2.44512 3.486,6.19747 3.486,11.25706 l 0,24.51133 -14.852,0 0,-21.20684 c -1e-4,-2.42085 -0.4479,-4.12756 -1.3436,-5.12014 -0.8958,-1.01674 -2.1546,-1.52513 -3.7766,-1.52515 -1.7915,2e-5 -3.244,0.67787 -4.3576,2.03353 -1.1136,1.35571 -1.6704,3.78869 -1.6704,7.29893 l 0,18.51967 -14.7794,0 0,-53.23498"
       id="path3050"
       style="font-size:74.36920166px;font-variant:normal;font-weight:normal;writing-mode:lr-tb;fill:#231f20;fill-opacity:1;fill-rule:nonzero;stroke:none;font-family:Arial Black;-inkscape-font-specification:ArialBlack" /><path
       d="m 1298.7989,389.33536 0,53.23498 -13.8353,0 0,-5.70115 c -1.9367,2.42087 -3.7039,4.05496 -5.3017,4.90227 -2.1304,1.1136 -4.5028,1.6704 -7.1173,1.6704 -5.2534,0 -9.272,-1.99722 -12.056,-5.99166 -2.7598,-3.99443 -4.1397,-8.84828 -4.1397,-14.56155 0,-6.39108 1.5252,-11.28123 4.5755,-14.67049 3.0745,-3.38918 6.9721,-5.08379 11.6928,-5.08383 2.2998,4e-5 4.3817,0.38738 6.2458,1.16202 1.8883,0.77472 3.5587,1.93673 5.0112,3.48606 l 0,-18.44705 14.9247,0 m -14.8157,33.84379 c -10e-5,-3.02606 -0.6416,-5.27747 -1.9246,-6.75423 -1.2831,-1.50091 -2.9051,-2.25138 -4.866,-2.25141 -1.7188,3e-5 -3.1592,0.71418 -4.3212,2.14247 -1.1621,1.42834 -1.7431,3.825 -1.7431,7.18999 0,3.14715 0.5931,5.45908 1.7794,6.9358 1.2104,1.45254 2.6992,2.1788 4.4665,2.17879 1.8882,10e-6 3.4618,-0.73836 4.7207,-2.2151 1.2588,-1.47672 1.8882,-3.88549 1.8883,-7.22631"
       id="path3052"
       style="font-size:74.36920166px;font-variant:normal;font-weight:normal;writing-mode:lr-tb;fill:#231f20;fill-opacity:1;fill-rule:nonzero;stroke:none;font-family:Arial Black;-inkscape-font-specification:ArialBlack" /><path
       d="m 1307.8414,427.7546 15.7962,0 0,14.81574 -15.7962,0 0,-14.81574"
       id="path3054"
       style="font-size:74.36920166px;font-variant:normal;font-weight:normal;writing-mode:lr-tb;fill:#231f20;fill-opacity:1;fill-rule:nonzero;stroke:none;font-family:Arial Black;-inkscape-font-specification:ArialBlack" /><path
       d="m 1373.1681,389.33536 0,53.23498 -13.8353,0 0,-5.70115 c -1.9368,2.42087 -3.704,4.05496 -5.3017,4.90227 -2.1304,1.1136 -4.5029,1.6704 -7.1174,1.6704 -5.2533,0 -9.272,-1.99722 -12.056,-5.99166 -2.7597,-3.99443 -4.1396,-8.84828 -4.1396,-14.56155 0,-6.39108 1.5251,-11.28123 4.5754,-14.67049 3.0745,-3.38918 6.9721,-5.08379 11.6928,-5.08383 2.2998,4e-5 4.3818,0.38738 6.2459,1.16202 1.8882,0.77472 3.5586,1.93673 5.0112,3.48606 l 0,-18.44705 14.9247,0 m -14.8158,33.84379 c 0,-3.02606 -0.6415,-5.27747 -1.9246,-6.75423 -1.2831,-1.50091 -2.905,-2.25138 -4.8659,-2.25141 -1.7189,3e-5 -3.1593,0.71418 -4.3213,2.14247 -1.162,1.42834 -1.743,3.825 -1.743,7.18999 0,3.14715 0.5931,5.45908 1.7793,6.9358 1.2104,1.45254 2.6993,2.1788 4.4665,2.17879 1.8883,10e-6 3.4619,-0.73836 4.7207,-2.2151 1.2589,-1.47672 1.8883,-3.88549 1.8883,-7.22631"
       id="path3056"
       style="font-size:74.36920166px;font-variant:normal;font-weight:normal;writing-mode:lr-tb;fill:#231f20;fill-opacity:1;fill-rule:nonzero;stroke:none;font-family:Arial Black;-inkscape-font-specification:ArialBlack" /><path
       d="m 1424.9874,426.95572 -29.6315,0 c 0.2663,2.37246 0.9078,4.1397 1.9246,5.30171 1.4283,1.67041 3.2924,2.50561 5.5922,2.5056 1.4525,10e-6 2.8324,-0.36312 4.1397,-1.08939 0.7989,-0.45996 1.6583,-1.27095 2.5783,-2.43298 l 14.5615,1.34358 c -2.2272,3.87341 -4.9144,6.65741 -8.0615,8.35201 -3.1472,1.67041 -7.6621,2.50561 -13.5448,2.50561 -5.108,0 -9.1267,-0.71416 -12.0559,-2.14248 -2.9293,-1.45252 -5.3623,-3.74024 -7.299,-6.86317 -1.9125,-3.14712 -2.8687,-6.83895 -2.8687,-11.07549 0,-6.02795 1.9246,-10.906 5.7738,-14.63417 3.8734,-3.72811 9.2114,-5.59218 16.0141,-5.59222 5.5195,4e-5 9.8771,0.83524 13.0727,2.5056 3.1955,1.67044 5.6285,4.09131 7.2989,7.26262 1.6704,3.17137 2.5056,7.29895 2.5056,12.38276 l 0,1.67041 m -15.0336,-7.08106 c -0.2906,-2.8566 -1.0652,-4.90224 -2.3241,-6.13691 -1.2346,-1.23461 -2.8687,-1.85193 -4.9022,-1.85197 -2.3483,4e-5 -4.2245,0.93207 -5.6285,2.79611 -0.8958,1.16205 -1.4647,2.89297 -1.7068,5.19277 l 14.5616,0"
       id="path3058"
       style="font-size:74.36920166px;font-variant:normal;font-weight:normal;writing-mode:lr-tb;fill:#231f20;fill-opacity:1;fill-rule:nonzero;stroke:none;font-family:Arial Black;-inkscape-font-specification:ArialBlack" /></g><path
     d="m 441.835,134.78125 63.535,0 82.8525,139.64125 0,-139.64125 64.09875,0 0,252.42375 -64.09875,0 -82.4425,-138.58375 0,138.58375 -63.945,0 0,-252.42375 z m 388.02625,210.755 -77.4725,0 -10.6575,41.66875 -69.47875,0 82.69875,-252.42375 74.14125,0 82.75,252.42375 -71.17,0 -10.81125,-41.66875 z M 815.6175,290.9375 791.27875,200.19375 767.095,290.9375 l 48.5225,0 z M 932.85,134.78125 l 89.4612,0 34.5351,153.57 34.3812,-153.57 89.1538,0 0,252.42375 -55.5426,0 0,-192.4775 -43.0912,192.4775 -50.2638,0 -42.93745,-192.4775 0,192.4775 -55.69625,0 0,-252.42375 z m 290.7762,0 182.1988,0 0,53.8925 -114.05,0 0,40.14125 0.425,0 0,51.48375 -0.425,0 0,49.72125 117.3875,0 0,57.185 -185.5363,0 0,-252.42375"
     id="path32"
     style="fill:#231f20;fill-opacity:1;fill-rule:evenodd;stroke:none" /><path
     d="m 0.95556625,71.39375 9.7625e-4,0 0,-0.0012 1473.4559575,0 0,0.0012 0.6125,0 0,117.445 -39.875,0 0,-77.5725 -1394.321375,0 0,299.5 278.802625,0 0,39.8725 -318.6747075,0 0,-0.30375 -9.7625e-4,0 0,-378.94125 z M 1435.15,410.76625 l -23.7375,0 0,39.8725 63,0 0,-0.60875 0.6125,0 0,-127.0175 -39.875,0 0,87.75375 z m -629.74375,0 -418.06875,0 0,39.8725 418.06875,0 0,-39.8725"
     id="path34"
     style="fill:#231f20;fill-opacity:1;fill-rule:evenodd;stroke:none" /><path
     d="m 1611.95,598.664 c -0.5875,3.647 -0.825,7.294 -1.4125,10.9405 -13.4125,1.88238 -27.875,2 -41.6375,0.353 2,-3.76412 5.4125,-7.52875 7.4,-11.2935 12,1.76475 22.5875,1.76475 35.65,0 z m 15.8875,7.76425 c 13.2875,-41.76075 29.7625,-130.81325 11.6375,-127.402 -6,-6.8225 -48.35,42.4675 -49.05,87.5225 l -8.125,-0.705 c -14.1125,-53.1725 45.7875,-84.365 51.4375,-128.36125 2.875,0.72375 7.9875,0.4375 13.5,-2.68125 18,55.055 16.5875,97.86875 -3.875,168.80375 -4.2375,51.99613 -1.0625,70.46525 20.825,89.28712 3,9.23483 2.7625,15.58688 -0.7125,18.35153 -4.1125,-1.05859 -49.175,-13.05765 -35.6375,-104.8154 z m 52.575,-198.9995 c -4.3625,6.91125 -7.075,9.3825 -13.05,13.0575 54.225,80.23 40.7,135.005 -3.175,168.2965 -2.4375,4.57325 -2.4375,8.33788 0,11.29338 31.7625,-15.88113 60.7,-50.46613 47.2875,-124.93113 37.175,14.46875 55.6375,8.8225 80.4625,4.235 -2.35,-4.1175 -2.8875,-9.44875 -7.0625,-12.3525 -61.7625,15.175 -82.9375,-14.0725 -104.4625,-59.59875 z m -91.6625,8.61375 c -9.875,-1.3475 -9.6625,8.46875 3.5375,9.63875 35.4125,-1.89375 107.4875,-33.45 108.3,-88.72375 1.25,-12.75 -2.35,-21.05125 -5.95,-12.7725 -2.4625,39.82 -53.85,86.01625 -105.8875,91.8575 z m 94.075,-112.215 c -14.0125,54.20875 -83.6,76.99 -127.0375,79.5925 -9.3125,-0.0738 -8.8375,4.7525 -2.1,8.86625 80.3875,6.10875 132.525,-47.63 136.6375,-77.0725 1.0125,-7.21625 -0.125,-10.42875 -7.5,-11.38625 z m -140.9,54.845 c 76.3625,1.26 135.15,-19.49375 130.0125,-70.16375 -2.725,-7.19125 -3.075,-0.8475 5.2625,-21.48375 2.4375,-10.33375 0.475,-20.27375 -7.025,-10.68625 -6.575,1.55 -10.025,27.74125 -19.45,4.5325 -5.3875,-16.3625 -10.6625,-24.96 -23.35,-46.8825 -4.5625,-3.40875 -13.7125,-2.8025 -14.075,0.60625 15.225,20.52125 37.6125,64.755 24.2375,73.35875 0,-0.001 1.8125,-0.002 1.8,-0.004 -0.062,0.0425 -0.1125,0.085 -0.175,0.12625 -0.012,0.007 -0.025,0.0175 -0.037,0.0238 l 0,10e-4 c -1.75,1.235 -3.175,3.55375 -11.525,3.47 -9.8125,-29.20875 -16.1625,-60.23 -45.6625,-91.03375 -6.7125,-7.87 -17.1,-7.2825 -11.625,3.9225 22.7125,29.5325 34.325,49.3825 43.4125,82.06125 1.125,3.42375 0.8625,5.37125 -0.075,9.38125 -0.1375,-0.54125 -0.6125,0.40875 -3.6375,0.3525 -17.2625,-6.16125 18.875,1.03625 -68.15,-99.1175 -8.0375,-7.23625 -17.2625,-3.8 -13.2375,4.5325 28.6625,37.83125 57.275,72.0725 57.9125,86.43 -2.5875,1.1675 -5.0375,-0.0275 -7.625,-0.95875 -12.3875,-20.07 -28.4,-65.4075 -95.675,-77.2775 -37.125,-6.57625 -132.275,-6.93125 -194.825,-6.66 L 1286.2,220.44 c 128.4375,-4.7575 238.4125,-2.53625 248.9125,35.04875 C 1495.325,239.38625 1495.5,235.6725 1286.475,238.6925 l 1.05,13.86375 c 196.1625,-0.85375 240.0875,-3.45 242.95,24.2075 -20.65,-11.2775 -112.825,-10.58625 -242.025,-10.7975 l -1.625,14.92125 c 194.3875,-0.52375 237.3,-6.11125 245.075,20.2375 -32.825,-7.7 -160.2625,-4.07375 -243.8125,-4.235 l 0,13.65375 c 162.125,-0.2875 227.1125,-2.825 226.4625,6.84875 l 0.7625,0.055 c 0.1,3.39375 0.1875,6.78625 0.2875,10.18 78.75,16.83 131.4875,-21.18125 137.8125,-29.53 l 1.1625,-0.2 c 7.8625,35.69 -79.975,53.7875 -116.3875,53.02125 -10.3,-1.84 -11.0125,7.225 3.7375,7.75375"
     id="path36"
     style="fill:#231f20;fill-opacity:1;fill-rule:evenodd;stroke:none" /></svg>