<?xml version="1.0" encoding="UTF-8" standalone="no"?>
<!-- Created with Inkscape (http://www.inkscape.org/) -->

<svg
   xmlns:dc="http://purl.org/dc/elements/1.1/"
   xmlns:cc="http://creativecommons.org/ns#"
   xmlns:rdf="http://www.w3.org/1999/02/22-rdf-syntax-ns#"
   xmlns:svg="http://www.w3.org/2000/svg"
   xmlns="http://www.w3.org/2000/svg"
   version="1.1"
   width="1792.5"
   height="711.25"
   id="svg2"
   xml:space="preserve"><metadata
     id="metadata8"><rdf:RDF><cc:Work
         rdf:about=""><dc:format>image/svg+xml</dc:format><dc:type
           rdf:resource="http://purl.org/dc/dcmitype/StillImage" /><dc:title></dc:title></cc:Work></rdf:RDF></metadata><defs
     id="defs6" /><g
     transform="matrix(1.25,0,0,-1.25,0,711.25)"
     id="g10"><g
       transform="scale(0.1,0.1)"
       id="g12"><g
         transform="scale(10,10)"
         id="g14"><text
           transform="matrix(0.796126,0,0,-1,49.7012,261.178)"
           id="text16"><tspan
             x="0"
             y="0"
             id="tspan18"
             style="font-size:279.39001465px;font-variant:normal;font-weight:normal;writing-mode:lr-tb;fill:#231f20;fill-opacity:1;fill-rule:nonzero;stroke:none;font-family:Arial Black;-inkscape-font-specification:ArialBlack">N</tspan></text>
<text
           transform="matrix(0.843082,0,0,-1,237.2,208.002)"
           id="text20"><tspan
             x="0"
             y="0"
             id="tspan22"
             style="font-size:185.29400635px;font-variant:normal;font-weight:normal;writing-mode:lr-tb;fill:#231f20;fill-opacity:1;fill-rule:nonzero;stroke:none;font-family:Arial Black;-inkscape-font-specification:ArialBlack">?</tspan></text>
<text
           transform="matrix(0.940309,0,0,-1,230.25,356.041)"
           id="text24"><tspan
             x="0"
             y="0"
             id="tspan26"
             style="font-size:136.41000366px;font-variant:normal;font-weight:normal;writing-mode:lr-tb;fill:#231f20;fill-opacity:1;fill-rule:nonzero;stroke:none;font-family:Arial Black;-inkscape-font-specification:ArialBlack">O</tspan></text>
<text
           transform="matrix(0.965851,0,0,-1,650.656,208.739)"
           id="text28"><tspan
             x="0 57.147873 114.29575 166.26784 186.427 226.80585 267.18469 306.52475 346.90359 387.28244 407.44159 447.82043"
             y="0"
             id="tspan30"
             style="font-size:60.5379982px;font-variant:normal;font-weight:normal;writing-mode:lr-tb;fill:#231f20;fill-opacity:1;fill-rule:nonzero;stroke:none;font-family:Arial Black;-inkscape-font-specification:ArialBlack">www.ccchd.de</tspan></text>
</g><path
         d="m 3534.68,4611.75 508.28,0 662.82,-1117.13 0,1117.13 512.79,0 0,-2019.39 -512.79,0 -659.54,1108.67 0,-1108.67 -511.56,0 0,2019.39 z m 3104.21,-1686.04 -619.78,0 -85.26,-333.35 -555.83,0 661.59,2019.39 593.13,0 662,-2019.39 -569.36,0 -86.49,333.35 z m -113.95,436.79 -194.71,725.95 -193.47,-725.95 388.18,0 z m 937.86,1249.25 715.69,0 276.28,-1228.56 275.05,1228.56 713.23,0 0,-2019.39 -444.34,0 0,1539.82 -344.73,-1539.82 -402.11,0 -343.5,1539.82 0,-1539.82 -445.57,0 0,2019.39 z m 2326.21,0 1457.59,0 0,-431.14 -912.4,0 0,-321.13 3.4,0 0,-411.87 -3.4,0 0,-397.77 939.1,0 0,-457.48 -1484.29,0 0,2019.39"
         id="path32"
         style="fill:#231f20;fill-opacity:1;fill-rule:evenodd;stroke:none" /><path
         d="m 7.64453,5118.85 0.00781,0 0,0.01 11787.64766,0 0,-0.01 4.9,0 0,-939.56 -319,0 0,620.58 -11154.571,0 0,-2396 2230.421,0 0,-318.98 -2549.39766,0 0,2.43 -0.00781,0 0,3031.53 z M 11481.2,2403.87 l -189.9,0 0,-318.98 504,0 0,4.87 4.9,0 0,1016.14 -319,0 0,-702.03 z m -5037.95,0 -3344.55,0 0,-318.98 3344.55,0 0,318.98"
         id="path34"
         style="fill:#231f20;fill-opacity:1;fill-rule:evenodd;stroke:none" /><path
         d="m 12895.6,900.688 c -4.7,-29.176 -6.6,-58.352 -11.3,-87.524 -107.3,-15.059 -223,-16 -333.1,-2.824 16,30.113 43.3,60.23 59.2,90.348 96,-14.118 180.7,-14.118 285.2,0 z m 127.1,-62.114 c 106.3,334.086 238.1,1046.506 93.1,1019.216 -48,54.58 -386.8,-339.74 -392.4,-700.18 l -65,5.64 c -112.9,425.38 366.3,674.92 411.5,1026.89 23,-5.79 63.9,-3.5 108,21.45 144,-440.44 132.7,-782.95 -31,-1350.43 -33.9,-415.969 -8.5,-563.722 166.6,-714.297 24,-73.8786 22.1,-124.695 -5.7,-146.8122188 C 13274.9,8.51953 12914.4,104.512 13022.7,838.574 z m 420.6,1591.996 c -34.9,-55.29 -56.6,-75.06 -104.4,-104.46 433.8,-641.84 325.6,-1080.04 -25.4,-1346.372 -19.5,-36.586 -19.5,-66.703 0,-90.347 254.1,127.049 485.6,403.729 378.3,999.449 297.4,-115.75 445.1,-70.58 643.7,-33.88 -18.8,32.94 -23.1,75.59 -56.5,98.82 -494.1,-121.4 -663.5,112.58 -835.7,476.79 z m -733.3,-68.91 c -79,10.78 -77.3,-67.75 28.3,-77.11 283.3,15.15 859.9,267.6 866.4,709.79 10,102 -18.8,168.41 -47.6,102.18 -19.7,-318.56 -430.8,-688.13 -847.1,-734.86 z m 752.6,897.72 c -112.1,-433.67 -668.8,-615.92 -1016.3,-636.74 -74.5,0.59 -70.7,-38.02 -16.8,-70.93 643.1,-48.87 1060.2,381.04 1093.1,616.58 8.1,57.73 -1,83.43 -60,91.09 z m -1127.2,-438.76 c 610.9,-10.08 1081.2,155.95 1040.1,561.31 -21.8,57.53 -24.6,6.78 42.1,171.87 19.5,82.67 3.8,162.19 -56.2,85.49 -52.6,-12.4 -80.2,-221.93 -155.6,-36.26 -43.1,130.9 -85.3,199.68 -186.8,375.06 -36.5,27.27 -109.7,22.42 -112.6,-4.85 121.8,-164.17 300.9,-518.04 193.9,-586.87 0,0.01 14.5,0.02 14.4,0.03 -0.5,-0.34 -0.9,-0.68 -1.4,-1.01 -0.1,-0.06 -0.2,-0.14 -0.3,-0.19 l 0,-0.01 c -14,-9.88 -25.4,-28.43 -92.2,-27.76 -78.5,233.67 -129.3,481.84 -365.3,728.27 -53.7,62.96 -136.8,58.26 -93,-31.38 181.7,-236.26 274.6,-395.06 347.3,-656.49 9,-27.39 6.9,-42.97 -0.6,-75.05 -1.1,4.33 -4.9,-3.27 -29.1,-2.82 -138.1,49.29 151,-8.29 -545.2,792.94 -64.3,57.89 -138.1,30.4 -105.9,-36.26 229.3,-302.65 458.2,-576.58 463.3,-691.44 -20.7,-9.34 -40.3,0.22 -61,7.67 -99.1,160.56 -227.2,523.26 -765.4,618.22 -297,52.61 -1058.2,55.45 -1558.6,53.28 l -17.7,-137.89 c 1027.5,38.06 1907.3,20.29 1991.3,-280.39 -318.3,128.82 -316.9,158.53 -1989.1,134.37 l 8.4,-110.91 c 1569.3,6.83 1920.7,27.6 1943.6,-193.66 -165.2,90.22 -902.6,84.69 -1936.2,86.38 l -13,-119.37 c 1555.1,4.19 1898.4,48.89 1960.6,-161.9 -262.6,61.6 -1282.1,32.59 -1950.5,33.88 l 0,-109.23 c 1297,2.3 1816.9,22.6 1811.7,-54.79 l 6.1,-0.44 c 0.8,-27.15 1.5,-54.29 2.3,-81.44 630,-134.64 1051.9,169.45 1102.5,236.24 l 9.3,1.6 c 62.9,-285.52 -639.8,-430.3 -931.1,-424.17 -82.4,14.72 -88.1,-57.8 29.9,-62.03"
         id="path36"
         style="fill:#231f20;fill-opacity:1;fill-rule:evenodd;stroke:none" /></g></g></svg>